<?xml version="1.0" encoding="UTF-8"?>
<svg id="Layer_1" data-name="Layer 1" xmlns="http://www.w3.org/2000/svg" version="1.1" viewBox="0 0 500 500">
  <defs>
    <style>
      .cls-1 {
        fill: #fcda17;
      }

      .cls-1, .cls-2 {
        stroke-width: 0px;
      }

      .cls-2 {
        fill: #d1b219;
      }
    </style>
  </defs>
  <path class="cls-2" d="M377.27,410.95c0-80.5-.16-322.01-.16-322.01,0-29.47-23.82-56.94-56.94-56.94h-95.27c-15.21,17.76-46.42,54.09-63.13,72.83-25.04,28.07-27.82,57.93-7.83,84.07,1.93,2.52,4.22,5.49,6.79,8.8h-.02c3.1,4.27,19.06,24.47,35.96,45.85,15.19,19.22,32.04,40.53,43.33,55.06,1.4,1.92,3.5,4.55,5.96,7.71.18.23.36.47.54.7,10.89,14.25,15.72,29.55,14.34,45.49-1.38,15.96-8.95,31.74-22.48,46.92-15.43,17.3-43.28,49.67-59.39,68.47,0,0,105.89.1,141.19.1,33.13,0,57.11-25.62,57.11-57.05ZM174.89,150.82c0-26.13,21.18-47.31,47.31-47.31s47.31,21.18,47.31,47.31-21.18,47.31-47.31,47.31-47.31-21.18-47.31-47.31ZM308.74,357.94"/>
  <path class="cls-1" d="M359.27,410.95c0-80.5-.16-322.01-.16-322.01,0-29.47-23.82-56.94-56.94-56.94h-95.27c-15.21,17.76-46.42,54.09-63.13,72.83-25.04,28.07-27.82,57.93-7.83,84.07,1.93,2.52,4.22,5.49,6.79,8.8h-.02c3.1,4.27,19.06,24.47,35.96,45.85,15.19,19.22,32.04,40.53,43.33,55.06,1.4,1.92,3.5,4.55,5.96,7.71.18.23.36.47.54.7,10.89,14.25,15.72,29.55,14.34,45.49-1.38,15.96-8.95,31.74-22.48,46.92-15.43,17.3-43.28,49.67-59.39,68.47,0,0,105.89.1,141.19.1,33.13,0,57.11-25.62,57.11-57.05ZM156.89,150.82c0-26.13,21.18-47.31,47.31-47.31s47.31,21.18,47.31,47.31-21.18,47.31-47.31,47.31-47.31-21.18-47.31-47.31ZM290.74,357.94"/>
</svg>