<?xml version="1.0" encoding="UTF-8"?>
<svg id="Layer_1" data-name="Layer 1" xmlns="http://www.w3.org/2000/svg" viewBox="0 0 318 500">
  <defs>
    <style>
      .cls-1 {
        fill: #fcda17;
      }

      .cls-2 {
        fill: #d1b219;
      }
    </style>
  </defs>
  <path class="cls-2" d="m281.81,314.2c-1.57-2.06-3.38-4.4-5.38-6.97-.5-.81-1.01-1.59-1.54-2.32-3.26-4.5-20.05-25.74-37.82-48.23-19.44-24.6-41.48-52.48-52.41-66.76-11.46-14.98-16.53-31.08-15.08-47.85,1.45-16.78,9.41-33.38,23.64-49.34,16.23-18.2,45.52-52.24,62.46-72.01H99.2c-39.56,0-59.89,26.94-59.89,59.89v338.78c0,32.95,20.82,59.89,59.89,59.89h97.45s.05-.04.07-.06h10.46c16-18.68,48.82-56.89,66.39-76.6,26.33-29.52,29.26-60.92,8.23-88.41Zm-53.71,77.5c-20.69,0-37.46-16.77-37.46-37.46s16.77-37.46,37.46-37.46,37.46,16.77,37.46,37.46-16.77,37.46-37.46,37.46Z"/>
  <path class="cls-1" d="m264.81,314.2c-1.57-2.06-3.38-4.4-5.38-6.97-.5-.81-1.01-1.59-1.54-2.32-3.26-4.5-20.05-25.74-37.82-48.23-19.44-24.6-41.48-52.48-52.41-66.76-11.46-14.98-16.53-31.08-15.08-47.85,1.45-16.78,9.41-33.38,23.64-49.34,16.23-18.2,45.52-52.24,62.46-72.01H82.2c-39.56,0-59.89,26.94-59.89,59.89v338.78c0,32.95,20.82,59.89,59.89,59.89h97.45s.05-.04.07-.06h10.46c16-18.68,48.82-56.89,66.39-76.6,26.33-29.52,29.26-60.92,8.23-88.41Zm-53.71,77.5c-20.69,0-37.46-16.77-37.46-37.46s16.77-37.46,37.46-37.46,37.46,16.77,37.46,37.46-16.77,37.46-37.46,37.46Z"/>
</svg>