<?xml version="1.0" encoding="utf-8"?>
<!-- Generator: Adobe Illustrator 27.3.1, SVG Export Plug-In . SVG Version: 6.00 Build 0)  -->
<svg version="1.1" id="Layer_1" xmlns="http://www.w3.org/2000/svg" xmlns:xlink="http://www.w3.org/1999/xlink" x="0px" y="0px"
	 viewBox="0 0 500 500" style="enable-background:new 0 0 500 500;" xml:space="preserve">
<style type="text/css">
	.st0{fill:#D1B219;}
	.st1{fill:#FCDA17;}
</style>
<g>
	<path class="st0" d="M481.89,419.28c0-84.67-0.17-338.67-0.17-338.67c0-30.99-25.05-59.89-59.89-59.89h-100.2
		c-16,18.68-48.82,56.89-66.39,76.6c-26.33,29.52-29.26,60.92-8.23,88.41c2.03,2.65,4.44,5.77,7.14,9.25l-0.02,0
		c3.26,4.5,20.05,25.74,37.82,48.23c15.98,20.21,33.7,42.63,45.57,57.91c1.48,2.02,3.68,4.79,6.27,8.11
		c0.19,0.25,0.38,0.5,0.57,0.74c11.46,14.98,16.53,31.08,15.08,47.85c-1.45,16.78-9.41,33.38-23.64,49.34
		c-16.23,18.2-45.52,52.24-62.46,72.01c0,0,111.37,0.11,148.49,0.11C456.67,479.28,481.89,452.34,481.89,419.28z M269.04,145.69
		c0-27.48,22.28-49.76,49.76-49.76c27.48,0,49.76,22.28,49.76,49.76c0,27.48-22.28,49.76-49.76,49.76
		C291.31,195.45,269.04,173.18,269.04,145.69z M409.81,363.52"/>
	<path class="st1" d="M464.89,419.28c0-84.67-0.17-338.67-0.17-338.67c0-30.99-25.05-59.89-59.89-59.89h-100.2
		c-16,18.68-48.82,56.89-66.39,76.6c-26.33,29.52-29.26,60.92-8.23,88.41c2.03,2.65,4.44,5.77,7.14,9.25l-0.02,0
		c3.26,4.5,20.05,25.74,37.82,48.23c15.98,20.21,33.7,42.63,45.57,57.91c1.48,2.02,3.68,4.79,6.27,8.11
		c0.19,0.25,0.38,0.5,0.57,0.74c11.46,14.98,16.53,31.08,15.08,47.85c-1.45,16.78-9.41,33.38-23.64,49.34
		c-16.23,18.2-45.52,52.24-62.46,72.01c0,0,111.37,0.11,148.49,0.11C439.67,479.28,464.89,452.34,464.89,419.28z M252.04,145.69
		c0-27.48,22.28-49.76,49.76-49.76c27.48,0,49.76,22.28,49.76,49.76c0,27.48-22.28,49.76-49.76,49.76
		C274.31,195.45,252.04,173.18,252.04,145.69z M392.81,363.52"/>
</g>
<g>
	<path class="st0" d="M278.81,314.2c-1.57-2.06-3.38-4.4-5.38-6.97c-0.5-0.81-1.01-1.59-1.54-2.32
		c-3.26-4.5-20.05-25.74-37.82-48.23c-19.44-24.6-41.48-52.48-52.41-66.76c-11.46-14.98-16.53-31.08-15.08-47.85
		c1.45-16.78,9.41-33.38,23.64-49.34c16.23-18.2,45.52-52.24,62.46-72.01H96.2c-39.56,0-59.89,26.94-59.89,59.89v338.78
		c0,32.95,20.82,59.89,59.89,59.89h97.45c0.02-0.02,0.05-0.04,0.07-0.06h10.46c16-18.68,48.82-56.89,66.39-76.6
		C296.91,373.1,299.83,341.7,278.81,314.2z M225.09,391.71c-20.69,0-37.46-16.77-37.46-37.46c0-20.69,16.77-37.46,37.46-37.46
		s37.46,16.77,37.46,37.46C262.55,374.93,245.78,391.71,225.09,391.71z"/>
	<path class="st1" d="M261.81,314.2c-1.57-2.06-3.38-4.4-5.38-6.97c-0.5-0.81-1.01-1.59-1.54-2.32
		c-3.26-4.5-20.05-25.74-37.82-48.23c-19.44-24.6-41.48-52.48-52.41-66.76c-11.46-14.98-16.53-31.08-15.08-47.85
		c1.45-16.78,9.41-33.38,23.64-49.34c16.23-18.2,45.52-52.24,62.46-72.01H79.2c-39.56,0-59.89,26.94-59.89,59.89v338.78
		c0,32.95,20.82,59.89,59.89,59.89h97.45c0.02-0.02,0.05-0.04,0.07-0.06h10.46c16-18.68,48.82-56.89,66.39-76.6
		C279.91,373.1,282.83,341.7,261.81,314.2z M208.09,391.71c-20.69,0-37.46-16.77-37.46-37.46c0-20.69,16.77-37.46,37.46-37.46
		s37.46,16.77,37.46,37.46C245.55,374.93,228.78,391.71,208.09,391.71z"/>
</g>
</svg>
