<?xml version="1.0" encoding="UTF-8"?>
<svg id="Layer_1" data-name="Layer 1" xmlns="http://www.w3.org/2000/svg" viewBox="0 0 316 500">
  <defs>
    <style>
      .cls-1 {
        fill: #fcda17;
      }

      .cls-2 {
        fill: #d1b219;
      }
    </style>
  </defs>
  <path class="cls-2" d="m290.89,419.28c0-84.67-.17-338.67-.17-338.67,0-30.99-25.05-59.89-59.89-59.89h-100.2c-16,18.68-48.82,56.89-66.39,76.6-26.33,29.52-29.26,60.92-8.23,88.41,2.03,2.65,4.44,5.77,7.14,9.25h-.02c3.26,4.49,20.05,25.73,37.82,48.22,15.98,20.21,33.7,42.63,45.57,57.91,1.48,2.02,3.68,4.79,6.27,8.11.19.25.38.5.57.74,11.46,14.98,16.53,31.08,15.08,47.85-1.45,16.78-9.41,33.38-23.64,49.34-16.23,18.2-45.52,52.24-62.46,72.01,0,0,111.37.11,148.49.11,34.84,0,60.06-26.94,60.06-60ZM78.04,145.69c0-27.48,22.28-49.76,49.76-49.76s49.76,22.28,49.76,49.76-22.28,49.76-49.76,49.76-49.76-22.28-49.76-49.76Zm140.78,217.83"/>
  <path class="cls-1" d="m273.89,419.28c0-84.67-.17-338.67-.17-338.67,0-30.99-25.05-59.89-59.89-59.89h-100.2c-16,18.68-48.82,56.89-66.39,76.6-26.33,29.52-29.26,60.92-8.23,88.41,2.03,2.65,4.44,5.77,7.14,9.25h-.02c3.26,4.49,20.05,25.73,37.82,48.22,15.98,20.21,33.7,42.63,45.57,57.91,1.48,2.02,3.68,4.79,6.27,8.11.19.25.38.5.57.74,11.46,14.98,16.53,31.08,15.08,47.85-1.45,16.78-9.41,33.38-23.64,49.34-16.23,18.2-45.52,52.24-62.46,72.01,0,0,111.37.11,148.49.11,34.84,0,60.06-26.94,60.06-60ZM61.04,145.69c0-27.48,22.28-49.76,49.76-49.76s49.76,22.28,49.76,49.76-22.28,49.76-49.76,49.76-49.76-22.28-49.76-49.76Zm140.78,217.83"/>
</svg>