<?xml version="1.0" encoding="UTF-8"?>
<svg id="Layer_1" data-name="Layer 1" xmlns="http://www.w3.org/2000/svg" version="1.1" viewBox="0 0 500 500">
  <defs>
    <style>
      .cls-1 {
        fill: #fcda17;
      }

      .cls-1, .cls-2 {
        stroke-width: 0px;
      }

      .cls-2 {
        fill: #d1b219;
      }
    </style>
  </defs>
  <path class="cls-2" d="M367.78,311.1c-1.5-1.96-3.22-4.19-5.12-6.64-.48-.77-.96-1.51-1.47-2.21-3.1-4.28-19.08-24.49-36-45.9-18.5-23.41-39.48-49.94-49.87-63.54-10.9-14.26-15.73-29.58-14.35-45.54,1.38-15.97,8.95-31.77,22.5-46.96,15.45-17.32,43.32-49.72,59.44-68.53h-148.92c-37.64,0-57,25.64-57,57v322.41c0,31.36,19.82,57,57,57h92.74s.05-.04.07-.06h9.96c15.22-17.78,46.46-54.14,63.19-72.9,25.06-28.1,27.84-57.98,7.83-84.14ZM316.67,384.86c-19.69,0-35.65-15.96-35.65-35.65s15.96-35.65,35.65-35.65,35.65,15.96,35.65,35.65-15.96,35.65-35.65,35.65Z"/>
  <path class="cls-1" d="M349.78,311.1c-1.5-1.96-3.22-4.19-5.12-6.64-.48-.77-.96-1.51-1.47-2.21-3.1-4.28-19.08-24.49-36-45.9-18.5-23.41-39.48-49.94-49.87-63.54-10.9-14.26-15.73-29.58-14.35-45.54,1.38-15.97,8.95-31.77,22.5-46.96,15.45-17.32,43.32-49.72,59.44-68.53h-148.92c-37.64,0-57,25.64-57,57v322.41c0,31.36,19.82,57,57,57h92.74s.05-.04.07-.06h9.96c15.22-17.78,46.46-54.14,63.19-72.9,25.06-28.1,27.84-57.98,7.83-84.14ZM298.67,384.86c-19.69,0-35.65-15.96-35.65-35.65s15.96-35.65,35.65-35.65,35.65,15.96,35.65,35.65-15.96,35.65-35.65,35.65Z"/>
</svg>