<?xml version="1.0" encoding="utf-8"?>
<!-- Generator: Adobe Illustrator 27.3.1, SVG Export Plug-In . SVG Version: 6.00 Build 0)  -->
<svg version="1.1" id="Layer_1" xmlns="http://www.w3.org/2000/svg" xmlns:xlink="http://www.w3.org/1999/xlink" x="0px" y="0px"
	 viewBox="0 0 1159 100" style="enable-background:new 0 0 1159 100;" xml:space="preserve">
<style type="text/css">
	.st0{fill:#D1B219;}
	.st1{fill:#FCDA17;}
	.st2{fill:#F5EFE1;}
</style>
<g>
	<g>
		<path class="st0" d="M644.28,80.83c0-15.42-0.03-61.67-0.03-61.67c0-5.64-4.56-10.91-10.91-10.91h-18.25
			c-2.91,3.4-8.89,10.36-12.09,13.95c-4.8,5.38-5.33,11.09-1.5,16.1c0.37,0.48,0.81,1.05,1.3,1.68l0,0
			c0.59,0.82,3.65,4.69,6.89,8.78c2.91,3.68,6.14,7.76,8.3,10.55c0.27,0.37,0.67,0.87,1.14,1.48c0.03,0.04,0.07,0.09,0.1,0.13
			c2.09,2.73,3.01,5.66,2.75,8.71c-0.26,3.06-1.71,6.08-4.31,8.99c-2.96,3.31-8.29,9.51-11.37,13.11c0,0,20.28,0.02,27.04,0.02
			C639.69,91.75,644.28,86.85,644.28,80.83z M605.52,31c0-5,4.06-9.06,9.06-9.06s9.06,4.06,9.06,9.06c0,5-4.06,9.06-9.06,9.06
			S605.52,36.01,605.52,31z M631.15,70.67"/>
		<path class="st1" d="M641.18,80.83c0-15.42-0.03-61.67-0.03-61.67c0-5.64-4.56-10.91-10.91-10.91H612
			c-2.91,3.4-8.89,10.36-12.09,13.95c-4.8,5.38-5.33,11.09-1.5,16.1c0.37,0.48,0.81,1.05,1.3,1.68l0,0
			c0.59,0.82,3.65,4.69,6.89,8.78c2.91,3.68,6.14,7.76,8.3,10.55c0.27,0.37,0.67,0.87,1.14,1.48c0.03,0.04,0.07,0.09,0.1,0.13
			c2.09,2.73,3.01,5.66,2.75,8.71c-0.26,3.06-1.71,6.08-4.31,8.99c-2.96,3.31-8.29,9.51-11.37,13.11c0,0,20.28,0.02,27.04,0.02
			C636.59,91.75,641.18,86.85,641.18,80.83z M602.42,31c0-5,4.06-9.06,9.06-9.06c5,0,9.06,4.06,9.06,9.06c0,5-4.06,9.06-9.06,9.06
			C606.48,40.07,602.42,36.01,602.42,31z M628.06,70.67"/>
	</g>
	<g>
		<path class="st0" d="M603.98,61.69c-0.29-0.37-0.62-0.8-0.98-1.27c-0.09-0.15-0.18-0.29-0.28-0.42c-0.59-0.82-3.65-4.69-6.89-8.78
			c-3.54-4.48-7.55-9.56-9.54-12.16c-2.09-2.73-3.01-5.66-2.75-8.71c0.26-3.06,1.71-6.08,4.31-8.99c2.96-3.31,8.29-9.51,11.37-13.11
			h-28.5c-7.2,0-10.91,4.91-10.91,10.91v61.69c0,6,3.79,10.91,10.91,10.91h17.75c0,0,0.01-0.01,0.01-0.01h1.91
			c2.91-3.4,8.89-10.36,12.09-13.95C607.28,72.42,607.81,66.7,603.98,61.69z M594.2,75.81c-3.77,0-6.82-3.05-6.82-6.82
			s3.05-6.82,6.82-6.82s6.82,3.05,6.82,6.82S597.97,75.81,594.2,75.81z"/>
		<path class="st1" d="M600.88,61.69c-0.29-0.37-0.62-0.8-0.98-1.27c-0.09-0.15-0.18-0.29-0.28-0.42c-0.59-0.82-3.65-4.69-6.89-8.78
			c-3.54-4.48-7.55-9.56-9.54-12.16c-2.09-2.73-3.01-5.66-2.75-8.71c0.26-3.06,1.71-6.08,4.31-8.99c2.96-3.31,8.29-9.51,11.37-13.11
			h-28.5c-7.2,0-10.91,4.91-10.91,10.91v61.69c0,6,3.79,10.91,10.91,10.91h17.75c0,0,0.01-0.01,0.01-0.01h1.91
			c2.91-3.4,8.89-10.36,12.09-13.95C604.18,72.42,604.71,66.7,600.88,61.69z M591.1,75.81c-3.77,0-6.82-3.05-6.82-6.82
			s3.05-6.82,6.82-6.82c3.77,0,6.82,3.05,6.82,6.82S594.87,75.81,591.1,75.81z"/>
	</g>
</g>
<g>
	<g>
		<path class="st2" d="M45.7,29.66c-5.97-5.37-11.1-5.73-13.36-5.73c-2.51,0-5.61,0.36-7.76,2.74c-1.19,1.19-2.03,2.98-2.03,5.01
			c0,1.91,0.6,3.34,1.79,4.42c1.91,1.79,4.65,2.51,10.02,4.53l5.97,2.27c3.46,1.31,7.76,3.1,10.86,6.09
			c4.65,4.42,5.85,10.14,5.85,14.8c0,8.23-2.86,15.39-7.04,19.69c-7.04,7.4-17.3,8.11-22.55,8.11c-5.73,0-10.74-0.84-15.75-3.34
			C7.64,86.21,2.98,82.52,0,79.53l9.55-13.13c2.03,2.03,5.25,4.77,7.4,6.09c3.1,1.91,6.32,2.86,10.02,2.86
			c2.39,0,5.73-0.48,8.35-2.74c1.55-1.31,2.86-3.46,2.86-6.44c0-2.62-1.07-4.3-2.74-5.73c-2.15-1.79-7.04-3.58-9.31-4.42l-6.56-2.27
			c-3.7-1.31-7.99-2.98-11.1-6.32C4.3,43.02,3.7,37.41,3.7,33.59c0-7.04,2.15-13.01,6.92-17.9c5.61-5.73,12.29-7.28,19.69-7.28
			c5.49,0,14.32,0.95,23.63,7.88L45.7,29.66z"/>
		<path class="st2" d="M98.32,10.21c6.92,0,14.56,0.95,20.88,6.56c6.8,5.97,7.76,13.84,7.76,19.33c0,10.02-3.82,15.63-6.8,18.73
			c-6.32,6.44-14.68,7.04-20.29,7.04H88.66v27.92H70.28V10.21H98.32z M88.66,46.84h6.56c2.51,0,6.92-0.12,9.9-2.98
			c1.67-1.67,2.98-4.42,2.98-7.88c0-3.34-1.19-6.09-2.98-7.76c-2.74-2.62-6.68-2.98-10.26-2.98h-6.21V46.84z"/>
		<path class="st2" d="M166.46,10.21c10.14,0,16.47,3.34,20.29,6.92c3.34,3.22,6.92,8.95,6.92,17.78c0,5.01-1.07,11.22-6.21,16.23
			c-2.74,2.62-6.68,5.01-11.1,6.09l24.46,32.58h-22.43l-21.48-31.38v31.38h-18.38V10.21H166.46z M156.91,46.36h4.18
			c3.34,0,7.88-0.36,10.98-3.46c1.31-1.31,2.98-3.82,2.98-7.76c0-4.53-2.15-6.92-3.7-8.11c-2.98-2.27-7.76-2.51-10.14-2.51h-4.3
			V46.36z"/>
		<path class="st2" d="M259.06,74.76h-30.07l-6.09,15.04h-19.09l32.1-79.59h16.83l31.38,79.59h-19.09L259.06,74.76z M254.04,60.68
			l-9.78-26.73l-9.9,26.73H254.04z"/>
		<path class="st2" d="M315.98,25.72v64.08H297.6V25.72h-17.3V10.21h52.98v15.51H315.98z"/>
		<path class="st2" d="M361.32,10.21v64.08h24.7v15.51h-43.08V10.21H361.32z"/>
		<path class="st2" d="M415.14,10.21v79.59h-18.38V10.21H415.14z"/>
		<path class="st2" d="M432.92,89.79V10.21h15.99l43.2,51.31V10.21h18.38v79.59h-15.99L451.3,38.25v51.55H432.92z"/>
	</g>
	<g>
		<path class="st2" d="M727.51,29.66c-5.97-5.37-11.1-5.73-13.36-5.73c-2.51,0-5.61,0.36-7.76,2.74c-1.19,1.19-2.03,2.98-2.03,5.01
			c0,1.91,0.6,3.34,1.79,4.42c1.91,1.79,4.65,2.51,10.02,4.53l5.97,2.27c3.46,1.31,7.76,3.1,10.86,6.09
			c4.65,4.42,5.85,10.14,5.85,14.8c0,8.23-2.86,15.39-7.04,19.69c-7.04,7.4-17.3,8.11-22.55,8.11c-5.73,0-10.74-0.84-15.75-3.34
			c-4.06-2.03-8.71-5.73-11.69-8.71l9.55-13.13c2.03,2.03,5.25,4.77,7.4,6.09c3.1,1.91,6.32,2.86,10.02,2.86
			c2.39,0,5.73-0.48,8.35-2.74c1.55-1.31,2.86-3.46,2.86-6.44c0-2.62-1.07-4.3-2.74-5.73c-2.15-1.79-7.04-3.58-9.31-4.42l-6.56-2.27
			c-3.7-1.31-7.99-2.98-11.1-6.32c-4.18-4.42-4.77-10.02-4.77-13.84c0-7.04,2.15-13.01,6.92-17.9c5.61-5.73,12.29-7.28,19.69-7.28
			c5.49,0,14.32,0.95,23.63,7.88L727.51,29.66z"/>
		<path class="st2" d="M780.01,25.72v64.08h-18.38V25.72h-17.3V10.21h52.98v15.51H780.01z"/>
		<path class="st2" d="M874.28,57.34c0,7.64-0.95,17.06-8.83,25.18c-7.64,7.88-16.47,9.07-24.82,9.07c-8.35,0-17.18-1.19-24.82-9.07
			c-7.88-8.11-8.83-17.54-8.83-25.18V10.21h18.38v46.66c0,3.46,0.24,9.31,4.18,13.36c3.22,3.46,7.64,4.18,11.1,4.18
			c3.46,0,7.88-0.72,11.1-4.18c3.94-4.06,4.18-9.9,4.18-13.36V10.21h18.38V57.34z"/>
		<path class="st2" d="M916.88,10.21c10.5,0,21.6,1.55,31.38,10.98c7.04,6.8,11.46,16.11,11.46,28.52c0,12.53-4.3,21.6-10.86,28.16
			c-10.98,11.1-24.7,11.93-31.38,11.93h-25.77V10.21H916.88z M910.08,74.28h4.89c3.82,0,12.17-0.36,18.14-5.37
			c4.29-3.58,7.76-10.38,7.76-19.21c0-8.59-3.46-14.08-6.56-17.18c-5.97-5.97-13.72-6.8-19.33-6.8h-4.89V74.28z"/>
		<path class="st2" d="M992.18,10.21v79.59H973.8V10.21H992.18z"/>
		<path class="st2" d="M1080.48,19.99c7.52,7.28,12.41,17.78,12.41,30.07c0,10.62-3.82,21.48-12.41,29.83
			c-7.4,7.16-17.42,11.69-30.79,11.69c-14.92,0-25.06-5.97-31.02-11.69c-7.64-7.16-12.41-17.9-12.41-29.59
			c0-11.46,5.13-23.03,12.29-30.19c5.37-5.37,15.27-11.69,31.14-11.69C1062.11,8.42,1072.49,12.23,1080.48,19.99z M1032.16,32.16
			c-3.46,3.34-7.04,9.19-7.04,18.02c0,7.28,2.39,13.12,7.28,17.9c5.13,4.89,10.86,6.56,17.06,6.56c8.11,0,13.84-2.98,17.66-6.8
			c3.1-2.98,6.92-8.59,6.92-17.78c0-8.23-3.34-14.32-6.92-17.9c-3.94-3.82-10.26-6.8-17.54-6.8
			C1042.66,25.36,1036.45,27.87,1032.16,32.16z"/>
		<path class="st2" d="M1147.66,29.66c-5.97-5.37-11.1-5.73-13.36-5.73c-2.51,0-5.61,0.36-7.76,2.74c-1.19,1.19-2.03,2.98-2.03,5.01
			c0,1.91,0.6,3.34,1.79,4.42c1.91,1.79,4.65,2.51,10.02,4.53l5.97,2.27c3.46,1.31,7.76,3.1,10.86,6.09
			c4.65,4.42,5.85,10.14,5.85,14.8c0,8.23-2.86,15.39-7.04,19.69c-7.04,7.4-17.3,8.11-22.55,8.11c-5.73,0-10.74-0.84-15.75-3.34
			c-4.06-2.03-8.71-5.73-11.69-8.71l9.55-13.13c2.03,2.03,5.25,4.77,7.4,6.09c3.1,1.91,6.32,2.86,10.02,2.86
			c2.39,0,5.73-0.48,8.35-2.74c1.55-1.31,2.86-3.46,2.86-6.44c0-2.62-1.07-4.3-2.74-5.73c-2.15-1.79-7.04-3.58-9.31-4.42l-6.56-2.27
			c-3.7-1.31-7.99-2.98-11.1-6.32c-4.18-4.42-4.77-10.02-4.77-13.84c0-7.04,2.15-13.01,6.92-17.9c5.61-5.73,12.29-7.28,19.69-7.28
			c5.49,0,14.32,0.95,23.63,7.88L1147.66,29.66z"/>
	</g>
</g>
</svg>
